<mxfile host="app.diagrams.net" modified="2023-08-09T18:05:41.685Z" agent="Mozilla/5.0 (Macintosh; Intel Mac OS X 10_15_7) AppleWebKit/537.36 (KHTML, like Gecko) Chrome/115.0.0.0 Safari/537.36" version="21.6.7" etag="F3jPvTqtBSHb0sv9Z_AK" type="github">
  <diagram name="Страница — 1" id="mqGvCwd0s-h0bMFE0Uf2">
    <mxGraphModel>
      <root>
        <mxCell id="0" />
        <mxCell id="1" parent="0" />
      </root>
    </mxGraphModel>
  </diagram>
</mxfile>
